<svg xmlns="http://www.w3.org/2000/svg" width="254.333" height="306"><switch><g><path fill="#231F20" d="M184.3 130.349c.21.23.22.58.04.83-1.8 2.38-2.54 4.5-2.17 6.141.35 1.489 1.54 2.14 1.55 2.14.221.12.36.34.351.59 0 .25-.141.47-.36.58-.05.021-4.9 2.4-6.91 5.26-1.819 2.57-1.37 5.511-1.25 6.15.05.09.07.19.07.29a.658.658 0 01-1.08.5c-.021-.01-2.17-1.74-5.04-1.74-.39 0-.78.03-1.16.101-1 .159-2.07.56-3.08 1.04-.479-.24-1-.471-1.55-.671 1.37-.739 2.94-1.42 4.42-1.659.45-.07.91-.11 1.37-.11 1.95 0 3.58.66 4.62 1.229-.08-1.449.11-3.75 1.61-5.88 1.67-2.359 4.899-4.33 6.489-5.199-.5-.49-1.06-1.24-1.31-2.33-.33-1.42-.05-3.011.84-4.771l-7.73 4.82c.49 1.66.36 2.03.311 2.17-.16.47-2.34 3.189-3.76 3.189a1.11 1.11 0 01-.88-.42l-.19-.189-.52.359c-.2.171-.44.28-.591.351l.08.24c.16.34.15.729-.05 1.069-.71 1.2-3.87 1.91-4.36 1.91-.02 0-.079-.01-.1-.01-.15-.021-.54-.061-1.82-1.23l-7.71 4.87h.21c.971 0 1.79.12 2.48.33-.42-.03-.851-.04-1.28-.04-1.68 0-3.28.15-4.75.44.04-.13.13-.24.25-.32l10.53-6.649c.25-.15.58-.12.79.079.57.54 1.229 1.08 1.479 1.221.681-.07 2.74-.75 3.12-1.2-.01 0-.01-.01-.01-.01l-.67-2.021c-.1-.3.02-.62.29-.78.27-.149.61-.09.82.141l.5.58c.01 0 .01-.01.02-.021l.15-.1-.301-.68a.662.662 0 01.23-.801c.25-.17.6-.14.82.07l1.529 1.5c.28-.07.801-.49 1.301-.97.5-.48.96-1.021 1.149-1.32-.02-.3-.25-1.18-.46-1.85a.65.65 0 01.271-.75l10.569-6.58a.66.66 0 01.833.111z"/><path fill="#FFD000" d="M174.02 137.659l7.73-4.82c-.89 1.76-1.17 3.351-.84 4.771.25 1.09.81 1.84 1.31 2.33-1.59.869-4.819 2.84-6.489 5.199-1.5 2.13-1.69 4.431-1.61 5.88-1.04-.569-2.67-1.229-4.62-1.229-.46 0-.92.04-1.37.11-1.479.239-3.05.92-4.42 1.659-1.87-.699-4.12-1.149-6.59-1.26-.69-.21-1.51-.33-2.48-.33h-.21l7.71-4.87c1.28 1.17 1.67 1.21 1.82 1.23.021 0 .08.01.1.01.49 0 3.65-.71 4.36-1.91.2-.34.21-.729.05-1.069l-.08-.24c.15-.07.391-.18.591-.351l.52-.359.19.189c.22.271.529.42.88.42 1.42 0 3.6-2.72 3.76-3.189.048-.141.178-.511-.312-2.171z"/><path d="M165.26 152.229c2.46 1.27 3.971 3.029 3.971 5.01 0 3.91-5.881 6.97-13.391 6.97s-13.399-3.06-13.399-6.97c0-3.03 3.55-5.561 8.649-6.54 1.47-.29 3.07-.44 4.75-.44.43 0 .86.01 1.28.04 2.47.11 4.72.561 6.59 1.26.55.2 1.07.43 1.55.67zm2.18 5.01c0-1.44-1.53-2.931-4.15-3.95-.5-.19-1.04-.37-1.61-.521-.51-.14-1.04-.26-1.6-.359-.63-.11-1.311-.2-2.01-.26-.71-.07-1.46-.101-2.23-.101-6.95 0-11.609 2.681-11.609 5.19s4.659 5.189 11.609 5.189c6.94.002 11.6-2.678 11.6-5.188z"/><path fill="#FCEBD1" d="M163.29 153.289c2.62 1.02 4.15 2.51 4.15 3.95 0 2.51-4.66 5.189-11.601 5.189-6.95 0-11.609-2.68-11.609-5.189s4.659-5.19 11.609-5.19c.771 0 1.521.03 2.23.101.699.06 1.38.149 2.01.26.56.1 1.09.22 1.6.359.571.15 1.111.33 1.611.52z"/><path fill="#231F20" d="M131.29 292.379c.05.521-.29.99-.8 1.11-.5.12-1.021-.141-1.21-.63-.11-.271-2.78-6.67-10.311-6.67-7.399 0-9.05 9.199-9.069 9.3-.08.46-.46.819-.94.859-.47.061-.91-.239-1.07-.689-.109-.3-2.83-7.55-10.35-7.55-6.6 0-8.771 7.59-8.86 7.909-.13.461-.54.771-1.01.771h-.02c-.48-.01-.891-.34-1-.8-.07-.33-1.98-7.95-9.49-7.95-7.61 0-10.311 7.89-10.33 7.97-.15.44-.58.721-1.01.721a1.06 1.06 0 01-.99-.761c-.09-.319-2.34-7.859-8.96-7.859-7.51 0-10.23 7.25-10.34 7.55a1.042 1.042 0 01-2.01-.17c-.069-.38-1.689-9.3-9.069-9.3-7.57 0-10.28 6.609-10.311 6.67-.189.489-.72.75-1.22.63s-.84-.59-.79-1.11l2.561-27.07 7.67-105.359c0-.601.05-1.29.149-1.98.09-22.58 20.16-40.93 44.771-40.93 24.609 0 44.68 18.35 44.77 40.93.101.7.15 1.391.15 2.061l6.58 105.31v.43l2.509 26.607zm-2.47-3.92l-2.17-22.95c-.011-.12 0-.24.029-.359l-6.569-105.051c0-.659-.051-1.279-.141-1.89-.01-.05-.01-.11-.01-.16-.04-21.46-19.19-38.93-42.68-38.93s-42.641 17.47-42.681 38.93c0 .05-.01.11-.01.16-.1.61-.14 1.23-.14 1.82l-7.681 105.46-2.17 22.97c1.91-2.11 5.061-4.36 9.851-4.36 5.819 0 9.02 4.57 10.399 8.37 1.681-2.649 5.12-6.45 11.021-6.45 5.59 0 8.64 4.301 10.03 7.08 1.569-2.779 5.02-7.149 11.26-7.149 6.08 0 9.149 4.14 10.54 6.97 1.41-2.8 4.41-6.9 9.84-6.9 5.9 0 9.35 3.801 11.02 6.45 1.391-3.8 4.58-8.37 10.41-8.37 4.792-.001 7.942 2.249 9.852 4.359z"/><path fill="#404040" d="M126.65 265.509l2.17 22.95c-1.91-2.11-5.061-4.36-9.851-4.36-5.83 0-9.02 4.57-10.41 8.37-1.67-2.649-5.119-6.45-11.02-6.45-5.43 0-8.43 4.101-9.84 6.9-1.391-2.83-4.46-6.97-10.54-6.97-6.24 0-9.69 4.37-11.26 7.149-1.391-2.779-4.44-7.08-10.03-7.08-5.9 0-9.34 3.801-11.021 6.45-1.38-3.8-4.58-8.37-10.399-8.37-4.79 0-7.94 2.25-9.851 4.36l2.17-22.97 7.681-105.46c0-.59.04-1.21.14-1.82 0-.05.01-.11.01-.16.04-21.46 19.19-38.93 42.681-38.93 23.489 0 42.64 17.47 42.68 38.93 0 .05 0 .11.01.16.09.61.141 1.23.141 1.89l6.569 105.051c-.03.12-.04.24-.03.36z"/><path fill="#231F20" d="M125.81 63.279c.091 1.06.131 2.27.131 3.52 0 26.86-21.851 48.71-48.71 48.71-20.801 0-39.25-13.16-46.03-32.779a.764.764 0 01-.28-.5.67.67 0 01.03-.28 48.352 48.352 0 01-2.191-19.799l-.01-57.342c0-.489.35-.899.83-.979a.99.99 0 011.11.64L41.23 34a48.62 48.62 0 0136-15.9 48.627 48.627 0 0136.069 15.971l10.57-29.601a.99.99 0 011.11-.64c.479.08.829.49.829.979v58.47zm-1.87 3.52c0-1.2-.04-2.35-.131-3.439V10.58l-9.199 25.77c-.12.33-.41.58-.761.65-.35.06-.71-.07-.939-.34a46.617 46.617 0 00-35.68-16.561 46.674 46.674 0 00-35.61 16.48c-.23.27-.59.41-.94.33a.997.997 0 01-.76-.641l-9.17-25.68v51.66c-.15 1.53-.22 3.03-.22 4.55 0 4.95.779 9.811 2.29 14.45l44.26-5.18a.495.495 0 01.18 0l44.351 5.27a46.34 46.34 0 002.329-14.539zm-2.82 15.99l-43.95-5.22-43.85 5.14a46.664 46.664 0 0043.91 30.8c20.14 0 37.34-12.81 43.89-30.72z"/><path fill="#404040" d="M123.81 63.359a41.5 41.5 0 01.131 3.439c0 5.08-.82 9.96-2.33 14.54l-44.351-5.27a.495.495 0 00-.18 0l-44.26 5.18a46.592 46.592 0 01-2.29-14.45c0-1.52.069-3.02.22-4.55v-51.66l9.17 25.68c.12.33.41.58.76.641.351.08.71-.061.94-.33a46.67 46.67 0 0135.61-16.48 46.617 46.617 0 0135.68 16.561c.229.27.59.399.939.34.351-.07.641-.32.761-.65l9.199-25.77v52.779zm-24.45 3.44a3.126 3.126 0 00-6.25 0 3.126 3.126 0 106.25 0zm-38 0a3.126 3.126 0 00-6.25 0 3.126 3.126 0 106.25 0z"/><path fill="#FCEBD1" d="M77.17 77.569l43.95 5.22c-6.55 17.91-23.75 30.72-43.89 30.72a46.664 46.664 0 01-43.91-30.8l43.85-5.14z"/><path fill="#231F20" d="M96.23 63.679c1.729 0 3.13 1.4 3.13 3.12a3.125 3.125 0 11-3.13-3.12zm2.13 3.12c0-1.17-.96-2.12-2.13-2.12a2.12 2.12 0 00-2.12 2.12c0 1.181.949 2.13 2.12 2.13 1.17 0 2.13-.95 2.13-2.13z"/><path fill="#62AA9F" d="M96.23 64.679c1.17 0 2.13.95 2.13 2.12 0 1.181-.96 2.13-2.13 2.13a2.122 2.122 0 01-2.12-2.13c0-1.17.95-2.12 2.12-2.12z"/><path fill="#231F20" d="M58.23 63.679c1.729 0 3.13 1.4 3.13 3.12a3.125 3.125 0 11-3.13-3.12zm2.13 3.12c0-1.17-.96-2.12-2.13-2.12a2.12 2.12 0 00-2.12 2.12c0 1.181.949 2.13 2.12 2.13 1.17 0 2.13-.95 2.13-2.13z"/><path fill="#62AA9F" d="M58.23 64.679c1.17 0 2.13.95 2.13 2.12 0 1.181-.96 2.13-2.13 2.13a2.122 2.122 0 01-2.12-2.13c0-1.17.95-2.12 2.12-2.12z"/></g></switch></svg>