<svg xmlns="http://www.w3.org/2000/svg" width="254.333" height="306"><switch><g><path fill="#231F20" d="M242.936 113.191c.15.17.2.399.15.63l-9.7 45.66a.83.83 0 01-.16.329c.021.061.03.12.03.181v2c0 .42-.34.75-.75.75h-66.249a.674.674 0 01-.46-.17l.13.029a.613.613 0 00.721-.489.604.604 0 00-.49-.721l-.65-.12v-1.279c0-.07.01-.13.03-.2l.649.14a.573.573 0 00.131.011c.29 0 .54-.2.6-.49a.616.616 0 00-.47-.73l-.73-.149 1.16-5.46h.79c.34 0 .62-.28.62-.62s-.28-.61-.62-.61h-.53l8.15-38.38a.76.76 0 01.74-.59h66.33a.716.716 0 01.578.278zm-10.89 45.39l9.38-44.17h-64.8l-9.38 44.17h64.8zm-.29 2.66v-1.16h-64.75v1.16h64.75z"/><path fill="#D3D3D3" d="M211.817 143.391c.29-.1 4.949-1.83 5.409-5.63.471-3.91-5.829-6.7-7.189-6.56 0 0 2.34 4.05-.9 5.42-.71.3-1.47-.43-1.6-.88-.41-1.38-.271-4.57-.271-4.57s-.68.71-.81.93l-.98.011-.97-.011c-.09-.22-.649-.93-.649-.93s-.421 3.19-1.07 4.57c-.2.45-1.101 1.18-1.75.88-3-1.37.05-5.42.05-5.42-1.34-.141-8.13 2.649-8.34 6.56-.2 3.8 4.15 5.53 4.42 5.63-1.15-2.529.3-2.93.3-2.93 2.22-.38 3.2 2.03 3.2 2.03.53-1.34 1.47-1.45 1.47-1.45 1.58.04 2.17 2.87 2.261 3.37v.04c.01-.01.01-.021.02-.04.18-.5 1.26-3.33 2.84-3.37 0 0 .92.11 1.22 1.45 0 0 1.4-2.41 3.551-2.03-.002 0 1.388.4-.212 2.93zm29.609-28.98l-9.38 44.17h-64.8l9.38-44.17h64.8zm-9.67 45.67v1.16h-40.95c-1.25-.13-2.64-.21-4.14-.21s-2.89.08-4.14.21h-15.521v-1.16h64.751z"/><path d="M210.037 131.201c1.36-.141 7.66 2.649 7.189 6.56-.46 3.8-5.119 5.53-5.409 5.63 1.6-2.529.21-2.93.21-2.93-2.15-.38-3.551 2.03-3.551 2.03-.3-1.34-1.22-1.45-1.22-1.45-1.58.04-2.66 2.87-2.84 3.37-.01.02-.01.03-.02.04v-.04c-.091-.5-.681-3.33-2.261-3.37 0 0-.939.11-1.47 1.45 0 0-.98-2.41-3.2-2.03 0 0-1.45.4-.3 2.93-.27-.1-4.62-1.83-4.42-5.63.21-3.91 7-6.7 8.34-6.56 0 0-3.05 4.05-.05 5.42.649.3 1.55-.43 1.75-.88.649-1.38 1.07-4.57 1.07-4.57s.56.71.649.93l.97.011.98-.011c.13-.22.81-.93.81-.93s-.14 3.19.271 4.57c.13.45.89 1.18 1.6.88 3.241-1.37.902-5.42.902-5.42z"/><path fill="#231F20" d="M199.346 162.741c.34.41.521.859.521 1.34 0 2.92-6.641 4.45-13.2 4.45s-13.2-1.53-13.2-4.45c0-.48.181-.93.521-1.34h1c-.53.42-.82.87-.82 1.34 0 2.07 5.6 3.75 12.5 3.75 6.91 0 12.5-1.68 12.5-3.75 0-.47-.29-.92-.82-1.34h.998z"/><path fill="#231F20" d="M198.346 162.741c.53.42.82.87.82 1.34 0 2.07-5.59 3.75-12.5 3.75-6.9 0-12.5-1.68-12.5-3.75 0-.47.29-.92.82-1.34h1.33c-.94.45-1.45.93-1.45 1.34 0 1.24 4.6 3.05 11.8 3.05 7.21 0 11.8-1.81 11.8-3.05 0-.41-.51-.89-1.45-1.34h1.33z"/><path fill="#FCEBD1" d="M197.016 162.741c.94.45 1.45.93 1.45 1.34 0 1.24-4.59 3.05-11.8 3.05-7.2 0-11.8-1.81-11.8-3.05 0-.41.51-.89 1.45-1.34h20.7z"/><path fill="#FFF" d="M190.806 161.241h-8.279c1.25-.13 2.64-.21 4.14-.21s2.889.08 4.139.21z"/><path fill="#231F20" d="M167.667 151.881c.34 0 .62.271.62.61s-.28.62-.62.62h-.79l.26-1.23h.53z"/><path fill="#231F20" d="M167.136 151.881l-.26 1.23h-27.11l25.95 5.46-.13.6c-.03.15-.02.29.03.43a.46.46 0 00-.08.19l-31.42-6.6v2.119l31.39 5.96v.721c0 .24.11.46.29.58l-32.41-6.141a.61.61 0 01-.5-.6v-3.34a.615.615 0 01.78-.589c.06-.011.11-.021.17-.021h33.3z"/><path fill="#231F20" d="M166.447 158.721c.33.07.54.4.47.73a.61.61 0 01-.6.49c-.04 0-.08 0-.131-.011l-.649-.14c.01-.07.04-.13.08-.19a.775.775 0 01-.03-.43l.13-.6.73.151z"/><path fill="#D3D3D3" d="M166.876 153.111l-1.16 5.46-25.95-5.46z"/><path fill="#231F20" d="M166.157 161.391c.34.061.56.38.49.721a.613.613 0 01-.601.5c-.04 0-.08 0-.12-.011l-.13-.029a.693.693 0 01-.29-.58v-.721l.651.12z"/><path fill="#D3D3D3" d="M165.537 159.791a.66.66 0 00-.03.2v1.279l-31.39-5.96v-2.119l31.42 6.6z"/><path fill="#231F20" d="M130.277 35.101c11.189 14.07 6.31 35.83 6.1 36.75-.1.45-.51.74-.979.69a.907.907 0 01-.801-.89c0-1.03-.14-2.051-.41-3.051.12 1.381.181 2.78.181 4.2 0 8.351-2.12 16.22-5.83 23.09.36 3.19 3.31 5.98 3.34 6.011.19.18.25.439.16.68s-.32.39-.58.39c-.7 0-2.29-.42-3.38-.739.32.729.85 1.699 1.359 2.5a.615.615 0 01-.699.92c-2.36-.721-4.65-1.36-5.71-1.66-8.94 10.7-22.37 17.51-37.37 17.51-16.15 0-30.48-7.91-39.35-20.05-2.04 2.689-6 4.08-7 4.39-.07.03-.16.05-.24.07-.05.02-.1.02-.15.02-.27 0-.52-.18-.6-.46a.627.627 0 01.43-.75c.01 0 .07-.02.18-.06 1.7-.65 2.25-4.54 2.35-6.62l-2.52.38a.606.606 0 01-.66-.37.623.623 0 01.21-.74c1.8-1.31 2.16-4.55 2.23-6.21a48.332 48.332 0 01-3.58-18.119c-.41 2.35-.64 4.949-.64 7.829 0 .46-.34.841-.79.9h-.11c-.41 0-.77-.27-.87-.68-.32-1.28-7.7-31.61 5.77-48.86 5.89-7.55 14.9-11.38 26.78-11.38 6.49 0 13.919 1.16 22.129 3.43.881.061 1.761.15 2.631.261h.01c17.938-2.412 30.919 1.188 38.409 10.618zm5.109 31.39c.79-7.221 1.011-20.811-6.52-30.271-6.24-7.85-16.66-11.399-30.851-10.54h-.01c-2.21.13-4.52.38-6.92.73-.1.01-.189.03-.29.04-.13.02-.26.01-.38-.021-.17-.05-.34-.1-.51-.14-2.83-.82-5.561-1.5-8.19-2.04-5.3-1.11-10.19-1.66-14.62-1.66-11.3 0-19.83 3.601-25.37 10.68-9.12 11.7-8.12 30.301-6.7 40.351.53-3.561 1.45-6.601 2.65-9.2.96-2.1 2.11-3.91 3.37-5.47 7.38-9.15 18.79-9.811 21.93-9.811.64 0 1 .03 1 .03.3.021.57.18.72.44.15.26.16.569.03.84a19.053 19.053 0 00-1.86 8.93c6.09-11.36 23.01-11.71 23.79-11.72.29.02 21.17 1.42 25.6 16.24.12.409.23.83.32 1.26.02.07.04.13.05.2.01-.061.03-.12.04-.19.08-.37.15-.76.22-1.17 1.011-6.05.601-15.3-9.569-19.61a.889.889 0 01-.48-1.159.894.894 0 011.15-.511c.949.36 17.14 6.601 26.26 16.15 1.14 1.18 2.17 2.42 3.04 3.71.861 1.262 1.581 2.562 2.1 3.912zm-3.019 6.31c0-3.399-.37-6.72-1.061-9.91-4.739-6.409-13.63-11.689-20.109-14.949 4.229 5.22 4.14 11.989 3.33 16.729 2.3 1.42 3.909 4.61 3.909 8.311 0 5.02-2.96 9.1-6.6 9.1h-14.75c-3.43 0-6.26-3.63-6.57-8.25h-10.14c-.39 4.5-3.17 8-6.54 8h-14.75c-3.64 0-6.6-4.08-6.6-9.1 0-5.021 2.96-9.101 6.6-9.101h2.98c-.24-.1-.43-.3-.51-.57-.07-.239-1.6-5.68.99-12.119-3.97.079-16.7 1.31-22.84 13.51-.49 2.71-.75 5.5-.75 8.35 0 25.75 20.95 46.7 46.7 46.7 25.761-.001 46.711-20.951 46.711-46.701zm-2.59 28.62c-.761-.96-1.66-2.35-2.15-3.93a49.757 49.757 0 01-3.75 5.45c.89.25 2.22.63 3.7 1.069-.5-.91-1.03-2.04-1.03-2.7 0-.189.101-.38.25-.5a.662.662 0 01.561-.09 43.2 43.2 0 002.419.701zm-12.54-28.44c0-3.07-1.2-5.73-2.95-7.04-.561 2.64-1.271 4.399-1.29 4.46a.877.877 0 01-1.01.54.903.903 0 01-.721-.891c.021-1.81-.18-3.46-.56-4.97h-13.62c-2.979 0-5.4 3.54-5.4 7.9 0 4.359 2.421 7.899 5.4 7.899h14.75c2.981.002 5.401-3.538 5.401-7.898zm-20.151-9.1h13.271c-4.341-13.11-22.86-14.37-23.74-14.42-.13 0-19.33.42-23.34 13.61-.07.26-.27.46-.51.56h11.07c3.61 0 6.55 4.03 6.59 9h10.07c.139-4.86 3.04-8.75 6.589-8.75zm-17.849 8.85c0-4.36-2.42-7.9-5.4-7.9h-14.75c-2.98 0-5.4 3.54-5.4 7.9 0 4.359 2.42 7.899 5.4 7.899h14.75c2.98.001 5.4-3.539 5.4-7.899zm-33.691 27.65a49.239 49.239 0 01-4.01-6.99c-.2 1.19-.58 2.49-1.25 3.551l1.54-.24c.17-.03.36.02.49.14.14.12.22.29.22.47 0 .54-.05 3.971-1.15 6.36 1.47-.721 3.18-1.821 4.16-3.291z"/><path fill="#B68635" d="M128.867 36.221c7.53 9.46 7.31 23.05 6.52 30.271-.52-1.351-1.239-2.65-2.1-3.91-.87-1.29-1.9-2.53-3.04-3.71-9.12-9.55-25.311-15.79-26.26-16.15a.894.894 0 00-1.15.511.89.89 0 00.48 1.159c10.17 4.311 10.58 13.561 9.569 19.61-.069.41-.14.8-.22 1.17-.01.07-.03.13-.04.19-.01-.07-.03-.13-.05-.2-.09-.43-.2-.851-.32-1.26-4.43-14.82-25.31-16.221-25.6-16.24-.78.01-17.7.359-23.79 11.72-.08-2.26.21-5.5 1.86-8.93a.89.89 0 00-.75-1.28s-.36-.03-1-.03c-3.14 0-14.55.66-21.93 9.811a25.613 25.613 0 00-3.37 5.47c-1.2 2.6-2.12 5.64-2.65 9.2-1.42-10.05-2.42-28.65 6.7-40.351 5.54-7.079 14.07-10.68 25.37-10.68 4.43 0 9.32.55 14.62 1.66 2.63.54 5.36 1.22 8.19 2.04.17.04.34.09.51.14.12.03.25.04.38.021.101-.01.19-.03.29-.04 2.4-.351 4.71-.601 6.92-.73h.01c14.191-.862 24.61 2.688 30.851 10.538z"/><path fill="#231F20" d="M97.167 272.661a.604.604 0 01-1.1-.35v-11.579H85.926v16.88l4.5 4.5h27.74c.05 0 6.78-.29 11.53-4.58.83-1.82 1.3-3.891 1.3-6.12l-.61-10.68H97.277v11.579c0 .13-.04.25-.11.35zm-24.581 9.45h7.7l4.34-4.351v-17.029h-10.85v11.579a.606.606 0 01-1.16.25.537.537 0 01-.061-.25v-11.579h-32.28l-.72 10.739c0 2.24.57 4.36 1.57 6.221 4.75 4.279 11.36 4.42 11.43 4.42h20.031zm57.651-59.04l2.76 48.279c0 8.841-6.21 15.46-14.45 15.46h-65.54c-8.52 0-15.45-6.909-15.45-15.399l7.03-105.45c0-.6.05-1.29.14-1.979.02-3.78.55-7.44 1.53-10.921a6.613 6.613 0 01-2.02-4.01c-.32-2.569.76-5.39 3.2-8.38.46-.56.94-1.2 1.47-1.89 4.58-6 12.12-15.87 30.529-15.21 2.07-.32 4.19-.49 6.341-.49 22.569 0 40.97 18.34 41.05 40.9.09.689.14 1.38.14 2.05l3.25 56.79c.01.06.03.1.03.16 0 .03-.01.06-.01.09zm.059 36.16l-2.03-35.5h-85.53l-2.36 35.5h44.25v-31.25a.649.649 0 111.299 0v31.25h44.371zm-2.11-37l-3.22-56.15c0-.65-.04-1.271-.13-1.9l-.01-.13c-.021-11.189-4.78-21.28-12.37-28.39-3.96.21-11.2 5.42-17.14 10.27-.04.261-.61 3.58.01 7.471.67 4.189.35 7.02.34 7.14-.03.25-.25.44-.5.44h-.06a.511.511 0 01-.44-.561c.01-.03.32-2.82-.33-6.86-.45-2.819-.3-5.31-.15-6.689-4.279 3.55-7.649 6.71-8.26 7.28v68.08h42.26zm-9.64 62.58c3.83 0 7.14-1.689 9.39-4.439-4.579 2.76-9.489 2.97-9.75 2.979h-28.01a.61.61 0 01-.439-.189l-3.811-3.8v5.449h32.62zm-7.219-150.18c-2.01-1.74-4.2-3.28-6.54-4.59l-15.61 19.54c5.77-5.09 16.129-13.62 22.15-14.95zm-25.901 17.73l18.3-22.891a38.757 38.757 0 00-17.949-4.39c-6.78 0-13.16 1.74-18.73 4.8l17.98 22.5c.08-.03.159-.05.25-.05.059.001.099.021.149.031zm-.8 132.45v-5.3l-3.65 3.65a.61.61 0 01-.439.189h-27.99c-.25-.01-4.69-.1-9.06-2.479a13.464 13.464 0 009.52 3.939h31.619zm0-62.58v-67.36c-.62-.601-3.75-3.561-7.87-6.83-.66 2.29-1.729 6.65-1.28 8.13.681 2.21.69 5.98.69 6.14 0 .28-.22.5-.5.5s-.5-.22-.5-.5c0-.029-.01-3.779-.64-5.85-.63-2.03.909-7.51 1.38-9.08-6.24-4.86-14.35-10.06-19.45-9-6.03 6.86-9.71 15.84-9.73 25.67l-.01.13c-.08.63-.13 1.25-.13 1.851l-3.75 56.2h41.79zm-1.669-70.53l-16.95-21.22a39.213 39.213 0 00-8.35 6.6c7.889-.15 20 9.85 25.3 14.62zm-9.571-26.7c-13.51 1.43-19.6 9.43-23.49 14.53-.54.71-1.03 1.359-1.5 1.93-2.22 2.71-3.21 5.21-2.93 7.43.16 1.311.73 2.23 1.2 2.79 4.03-12.65 14.061-22.66 26.72-26.68z"/><path fill="#FCEBD1" d="M131.306 62.891a46.874 46.874 0 011.061 9.91c0 25.75-20.95 46.7-46.71 46.7-25.75 0-46.7-20.95-46.7-46.7 0-2.85.26-5.64.75-8.35 6.14-12.2 18.87-13.431 22.84-13.51-2.59 6.439-1.06 11.88-.99 12.119.08.271.27.471.51.57h-2.98c-3.64 0-6.6 4.08-6.6 9.101 0 5.02 2.96 9.1 6.6 9.1h14.75c3.37 0 6.15-3.5 6.54-8h10.14c.311 4.62 3.141 8.25 6.57 8.25h14.75c3.64 0 6.6-4.08 6.6-9.1 0-3.7-1.609-6.891-3.909-8.311.81-4.74.899-11.51-3.33-16.729 6.478 3.26 15.369 8.54 20.108 14.95z"/><path fill="#FFFFE8" d="M130.386 260.731l.61 10.68c0 2.229-.47 4.3-1.3 6.12-4.75 4.29-11.48 4.58-11.53 4.58h-21v-9.45a.61.61 0 00.11-.351v-11.579h33.11z"/><path fill="#ABC7BB" d="M128.266 223.731l2.03 35.5h-44.37v-31.25a.648.648 0 10-1.299 0v31.25h-44.25l2.36-35.5h85.529zm-1.369 9.22a.497.497 0 00-.341-.62c-4.149-1.15-5.109-4.97-5.149-5.13a.498.498 0 00-.601-.37.49.49 0 00-.37.6c.04.181 1.12 4.551 5.851 5.86.04.02.09.02.13.02.219 0 .419-.14.48-.36zm-77.24-5.52a.504.504 0 00-.98-.23c-.03.16-1 3.979-5.14 5.13-.27.07-.42.35-.35.62.06.22.26.359.48.359.04 0 .09 0 .13-.02 4.74-1.309 5.809-5.679 5.86-5.859z"/><path fill="#67676F" d="M124.966 166.081l3.22 56.15h-42.26v-68.08c.61-.57 3.98-3.73 8.26-7.28-.149 1.38-.3 3.87.15 6.689.65 4.04.34 6.83.33 6.86-.03.28.17.521.44.561h.06c.25 0 .47-.19.5-.44.01-.12.33-2.95-.34-7.14-.62-3.891-.05-7.21-.01-7.471 5.939-4.85 13.18-10.06 17.14-10.27 7.59 7.109 12.35 17.2 12.37 28.39l.01.13c.09.631.13 1.251.13 1.901zm-13.38 51.19a.494.494 0 00.26-.649c-4.81-11.32-.1-17.95-.05-18.01a.507.507 0 00-.11-.7.515.515 0 00-.699.1c-.21.29-5.11 7.12-.061 19a.511.511 0 00.66.259z"/><path fill="#B68635" d="M127.626 97.491c.49 1.58 1.39 2.97 2.15 3.93-.83-.21-1.761-.49-2.42-.7a.656.656 0 00-.561.09.665.665 0 00-.25.5c0 .66.53 1.79 1.03 2.7-1.48-.439-2.811-.819-3.7-1.069a49.363 49.363 0 003.751-5.451z"/><path fill="#231F20" d="M126.556 232.331c.261.07.42.35.341.62a.493.493 0 01-.48.359c-.04 0-.09 0-.13-.02-4.73-1.31-5.811-5.68-5.851-5.86a.49.49 0 01.37-.6.5.5 0 01.601.37c.04.161 1 3.981 5.149 5.131z"/><path fill="#FFFFE8" d="M127.936 280.371c-2.25 2.75-5.56 4.439-9.39 4.439h-32.62v-5.449l3.811 3.8c.12.12.27.189.439.189h28.01c.261-.009 5.171-.219 9.75-2.979z"/><path fill="#FCEBD1" d="M114.287 65.941c1.75 1.31 2.95 3.97 2.95 7.04 0 4.359-2.42 7.899-5.4 7.899h-14.75c-2.979 0-5.4-3.54-5.4-7.899 0-4.36 2.421-7.9 5.4-7.9h13.62c.38 1.51.58 3.16.56 4.97 0 .431.301.811.721.891.43.1.85-.141 1.01-.54.018-.061.728-1.821 1.289-4.461zm-6.601 6.86c0-1.67-1.359-3.03-3.029-3.03-1.66 0-3.021 1.36-3.021 3.03s1.36 3.03 3.021 3.03c1.67 0 3.029-1.36 3.029-3.03z"/><path fill="#231F20" d="M111.846 216.621a.494.494 0 01-.46.689.51.51 0 01-.46-.3c-5.05-11.88-.149-18.71.061-19 .17-.21.479-.26.699-.1.221.16.271.479.11.7-.049.061-4.759 6.691.05 18.011z"/><path fill="#FCEBD1" d="M110.357 63.881H97.086c-3.55 0-6.45 3.89-6.59 8.75h-10.07c-.04-4.97-2.979-9-6.59-9h-11.07c.24-.1.44-.3.51-.56 4.01-13.19 23.21-13.61 23.34-13.61.881.05 19.4 1.31 23.741 14.42z"/><path fill="#231F20" d="M104.657 69.771c1.67 0 3.029 1.36 3.029 3.03s-1.359 3.03-3.029 3.03c-1.66 0-3.021-1.36-3.021-3.03s1.361-3.03 3.021-3.03zm2.229 3.03c0-1.229-1-2.22-2.229-2.22-1.221 0-2.221.99-2.221 2.22 0 1.23 1 2.22 2.221 2.22 1.229 0 2.229-.99 2.229-2.22z"/><path fill="#62AA9F" d="M104.657 70.581c1.229 0 2.229.99 2.229 2.22 0 1.23-1 2.22-2.229 2.22a2.22 2.22 0 110-4.44z"/><path fill="#67676F" d="M104.787 130.041c2.34 1.31 4.53 2.85 6.54 4.59-6.021 1.33-16.38 9.86-22.15 14.95l15.61-19.54z"/><path fill="#E8F134" d="M103.726 129.471l-18.3 22.891c-.05-.011-.09-.03-.149-.03-.091 0-.17.02-.25.05l-17.98-22.5c5.57-3.06 11.95-4.8 18.73-4.8a38.744 38.744 0 0117.949 4.389z"/><path fill="#4E494D" d="M97.167 272.661v9.45h-6.74l-4.5-4.5v-16.88h10.141v11.579a.603.603 0 001.099.351z"/><path fill="#FFFFE8" d="M84.626 279.511v5.3h-31.62c-3.71 0-7.08-1.51-9.52-3.939 4.37 2.38 8.81 2.47 9.06 2.479h27.99c.17 0 .32-.069.439-.189l3.651-3.651z"/><path fill="#4E494D" d="M84.626 260.731v17.029l-4.34 4.351h-7.7v-9.53l.03-.021a.607.607 0 001.16-.25v-11.579h10.85z"/><path fill="#67676F" d="M84.626 154.871v67.36h-41.79l3.75-56.2c0-.601.05-1.221.13-1.851l.01-.13c.02-9.83 3.7-18.81 9.73-25.67 5.1-1.06 13.21 4.14 19.45 9-.471 1.57-2.01 7.05-1.38 9.08.63 2.07.64 5.82.64 5.85 0 .28.22.5.5.5s.5-.22.5-.5c0-.159-.01-3.93-.69-6.14-.449-1.479.62-5.84 1.28-8.13 4.12 3.271 7.25 6.231 7.87 6.831zm-25 62.14c5.05-11.88.15-18.71-.06-19a.504.504 0 00-.7-.1.505.505 0 00-.1.7c.05.06 4.76 6.689-.06 18.01-.11.25.01.54.27.649.06.03.13.04.19.04a.486.486 0 00.46-.299z"/><path fill="#67676F" d="M66.006 130.481l16.95 21.22c-5.3-4.771-17.41-14.771-25.3-14.62 2.47-2.56 5.27-4.79 8.35-6.6z"/><path fill="#FCEBD1" d="M73.836 64.831c2.98 0 5.4 3.54 5.4 7.9 0 4.359-2.42 7.899-5.4 7.899h-14.75c-2.98 0-5.4-3.54-5.4-7.899 0-4.36 2.42-7.9 5.4-7.9h14.75zm-4.149 7.97c0-1.67-1.36-3.03-3.03-3.03-1.66 0-3.02 1.36-3.02 3.03s1.36 3.03 3.02 3.03c1.67 0 3.03-1.36 3.03-3.03z"/><path fill="#FFFFE8" d="M72.617 272.561l-.03.021v9.53h-20.03c-.07 0-6.68-.141-11.43-4.42-1-1.86-1.57-3.98-1.57-6.221l.72-10.739h32.28v11.579a.53.53 0 00.06.25z"/><path fill="#231F20" d="M66.657 69.771c1.67 0 3.03 1.36 3.03 3.03s-1.36 3.03-3.03 3.03c-1.66 0-3.02-1.36-3.02-3.03s1.36-3.03 3.02-3.03zm2.23 3.03c0-1.229-1-2.22-2.23-2.22-1.22 0-2.22.99-2.22 2.22 0 1.23 1 2.22 2.22 2.22 1.23 0 2.23-.99 2.23-2.22z"/><path fill="#62AA9F" d="M66.657 70.581c1.23 0 2.23.99 2.23 2.22 0 1.23-1 2.22-2.23 2.22a2.22 2.22 0 010-4.44z"/><path fill="#231F20" d="M59.566 198.011c.21.29 5.11 7.12.06 19a.49.49 0 01-.46.3c-.06 0-.13-.01-.19-.04a.49.49 0 01-.27-.649c4.82-11.32.11-17.95.06-18.01a.505.505 0 01.1-.7.503.503 0 01.7.099z"/><path fill="#67676F" d="M49.896 139.531c3.89-5.101 9.98-13.101 23.49-14.53-12.66 4.02-22.69 14.03-26.72 26.68a5.297 5.297 0 01-1.2-2.79c-.28-2.22.71-4.72 2.93-7.43.471-.57.96-1.22 1.5-1.93z"/><path fill="#231F20" d="M49.287 226.831c.26.06.43.33.37.6-.05.181-1.12 4.551-5.86 5.86-.04.02-.09.02-.13.02-.22 0-.42-.14-.48-.359a.502.502 0 01.35-.62c4.14-1.15 5.11-4.97 5.14-5.13a.504.504 0 01.61-.371z"/><path fill="#B68635" d="M41.537 93.391c1.15 2.45 2.49 4.78 4.01 6.99-.98 1.47-2.69 2.57-4.16 3.29 1.1-2.39 1.15-5.82 1.15-6.36 0-.18-.08-.35-.22-.47a.587.587 0 00-.49-.14l-1.54.24c.67-1.06 1.049-2.36 1.25-3.55z"/></g></switch></svg>