<?xml version="1.0" standalone="no"?>
<!DOCTYPE svg PUBLIC "-//W3C//DTD SVG 20010904//EN"
 "http://www.w3.org/TR/2001/REC-SVG-20010904/DTD/svg10.dtd">
<svg version="1.0" xmlns="http://www.w3.org/2000/svg"
 width="725.000000pt" height="725.000000pt" viewBox="0 0 725.000000 725.000000"
 preserveAspectRatio="xMidYMid meet">
<metadata>
Created by potrace 1.11, written by Peter Selinger 2001-2013
</metadata>
<g transform="translate(0.000000,725.000000) scale(0.100000,-0.100000)"
fill="#000000" stroke="none">
<path d="M832 6838 c-9 -9 -12 -391 -12 -1657 0 -991 -4 -1709 -10 -1803 -24
-382 40 -803 177 -1158 291 -754 863 -1327 1622 -1625 186 -72 414 -129 651
-161 171 -24 527 -24 705 0 326 42 587 122 890 271 343 169 639 396 879 676
355 413 577 897 657 1430 l21 144 -2 1935 c-1 1332 -5 1939 -12 1947 -14 17
-63 17 -80 0 -7 -8 -150 -399 -318 -870 l-305 -855 -131 127 c-360 350 -805
596 -1289 711 -232 56 -386 73 -650 74 -254 1 -355 -8 -565 -50 -256 -51 -444
-115 -696 -239 -269 -132 -502 -297 -723 -512 -58 -56 -107 -100 -109 -98 -2
2 -141 387 -308 856 -167 469 -310 856 -317 861 -18 12 -61 10 -75 -4z m2816
-925 c-21 -2 -55 -2 -75 0 -21 2 -4 4 37 4 41 0 58 -2 38 -4z m-251 -9 c-3 -3
-12 -4 -19 -1 -8 3 -5 6 6 6 11 1 17 -2 13 -5z m460 0 c-3 -3 -12 -4 -19 -1
-8 3 -5 6 6 6 11 1 17 -2 13 -5z m-2930 -2506 c-3 -7 -5 -2 -5 12 0 14 2 19 5
13 2 -7 2 -19 0 -25z m1656 -70 c28 -14 57 -69 57 -106 0 -71 -50 -122 -120
-122 -55 0 -94 22 -114 64 -20 42 -20 67 -2 109 27 66 110 92 179 55z m2159
12 c56 -16 88 -60 88 -122 0 -44 -4 -54 -34 -84 -30 -30 -40 -34 -84 -34 -144
0 -176 185 -42 239 32 13 29 13 72 1z m1565 -57 c-2 -16 -4 -5 -4 22 0 28 2
40 4 28 2 -13 2 -35 0 -50z m0 -160 c-2 -16 -4 -5 -4 22 0 28 2 40 4 28 2 -13
2 -35 0 -50z m-5380 -105 c-3 -7 -5 -2 -5 12 0 14 2 19 5 13 2 -7 2 -19 0 -25z
m2330 -374 c-3 -3 -12 -4 -19 -1 -8 3 -5 6 6 6 11 1 17 -2 13 -5z m-170 -20
c-3 -3 -12 -4 -19 -1 -8 3 -5 6 6 6 11 1 17 -2 13 -5z m1060 0 c-3 -3 -12 -4
-19 -1 -8 3 -5 6 6 6 11 1 17 -2 13 -5z m727 -169 c677 -80 1241 -148 1253
-151 l23 -4 -22 -58 c-36 -99 -132 -293 -197 -401 -390 -644 -1011 -1094
-1733 -1255 -217 -48 -336 -60 -588 -60 -245 0 -373 13 -565 55 -873 193
-1584 786 -1924 1604 -46 109 -49 125 -23 125 9 1 562 65 1227 144 666 79
1234 144 1264 145 30 0 608 -64 1285 -144z m-307 119 c-3 -3 -12 -4 -19 -1 -8
3 -5 6 6 6 11 1 17 -2 13 -5z m-2420 -60 c-3 -3 -12 -4 -19 -1 -8 3 -5 6 6 6
11 1 17 -2 13 -5z m3010 -10 c-3 -3 -12 -4 -19 -1 -8 3 -5 6 6 6 11 1 17 -2
13 -5z m420 -50 c-3 -3 -12 -4 -19 -1 -8 3 -5 6 6 6 11 1 17 -2 13 -5z m-4370
-50 c-3 -3 -12 -4 -19 -1 -8 3 -5 6 6 6 11 1 17 -2 13 -5z m4960 -20 c-3 -3
-12 -4 -19 -1 -8 3 -5 6 6 6 11 1 17 -2 13 -5z"/>
</g>
</svg>
